HIERARCHY
ROOT Hips
{
	OFFSET 0.00000 0.00000 0.00000
	CHANNELS 6 Xposition Yposition Zposition Zrotation Yrotation Xrotation 
	JOINT LHipJoint
	{
		OFFSET 0 0 0
		CHANNELS 3 Zrotation Yrotation Xrotation
		JOINT LeftHip
		{
			OFFSET 1.28858 -1.83292 1.03970
			CHANNELS 3 Zrotation Yrotation Xrotation
			JOINT LeftKnee
			{
				OFFSET 2.47846 -6.80952 0.00000
				CHANNELS 3 Zrotation Yrotation Xrotation
				JOINT LeftAnkle
				{
					OFFSET 2.75274 -7.56311 0.00000
					CHANNELS 3 Zrotation Yrotation Xrotation
					JOINT LeftToe
					{
						OFFSET 0.12848 -0.35301 1.68223
						CHANNELS 3 Zrotation Yrotation Xrotation
						End Site
						{
							OFFSET 0.00000 -0.00000 0.87311
						}
					}
				}
			}
		}
	}
	JOINT RHipJoint
	{
		OFFSET 0 0 0
		CHANNELS 3 Zrotation Yrotation Xrotation
		JOINT RightHip
		{
			OFFSET -1.31183 -1.83292 1.03970
			CHANNELS 3 Zrotation Yrotation Xrotation
			JOINT RightKnee
			{
				OFFSET -2.44740 -6.72417 0.00000
				CHANNELS 3 Zrotation Yrotation Xrotation
				JOINT RightAnkle
				{
					OFFSET -2.67343 -7.34519 0.00000
					CHANNELS 3 Zrotation Yrotation Xrotation
					JOINT RightToe
					{
						OFFSET -0.16914 -0.46471 1.77626
						CHANNELS 3 Zrotation Yrotation Xrotation
						End Site
						{
							OFFSET -0.00000 -0.00000 0.92777
						}
					}
				}
			}
		}
	}
	JOINT lowerback
	{
		OFFSET 0 0 0
		CHANNELS 3 Zrotation Yrotation Xrotation
		JOINT Chest
		{
			OFFSET 0.01249 2.14252 0.03842
			CHANNELS 3 Zrotation Yrotation Xrotation
			JOINT Chest2
			{
				OFFSET -0.02957 2.14199 -0.03751
				CHANNELS 3 Zrotation Yrotation Xrotation
				JOINT lowerneck
				{
					OFFSET 0 0 0
					CHANNELS 3 Zrotation Yrotation Xrotation
					JOINT Neck
					{
						OFFSET -0.01678 1.65709 -0.05476
						CHANNELS 3 Zrotation Yrotation Xrotation
						JOINT Head
						{
							OFFSET 0.07912 1.58331 -0.11843
							CHANNELS 3 Zrotation Yrotation Xrotation
							End Site
							{
								OFFSET 0.03298 1.73940 -0.04271
							}
						}
					}
				}
				JOINT LeftCollar
				{
					OFFSET 0 0 0
					CHANNELS 3 Zrotation Yrotation Xrotation
					JOINT LeftShoulder
					{
						OFFSET 3.39556 1.16496 0.08673
CHANNELS 3 Zrotation Xrotation Yrotation
						JOINT LeftElbow
						{
OFFSET 0 -5.239100 -0.000000
CHANNELS 3 Zrotation Xrotation Yrotation
							JOINT LeftWrist
							{
OFFSET 0 -3.314670 0.000000
CHANNELS 3 Zrotation Xrotation Yrotation
								JOINT lhand
								{
									OFFSET 0 0 0
CHANNELS 3 Zrotation Xrotation Yrotation
									JOINT LFingers
									{
OFFSET 0 -0.965900 0.000000
CHANNELS 3 Zrotation Xrotation Yrotation
										End Site
										{
OFFSET 0 -0.778730 0.000000
										}
									}
								}
								JOINT LThumb
								{
OFFSET 0 0.000000 0.000000
CHANNELS 3 Zrotation Xrotation Yrotation
									End Site
									{
OFFSET 0 -0.790620 0.790620
									}
								}
							}
						}
					}
				}
				JOINT RightCollar
				{
					OFFSET 0 0 0
					CHANNELS 3 Zrotation Yrotation Xrotation
					JOINT RightShoulder
					{
						OFFSET -3.27193 1.31331 0.33940
CHANNELS 3 Zrotation Xrotation Yrotation
						JOINT RightElbow
						{
OFFSET 0 -5.302520 0.000000
CHANNELS 3 Zrotation Xrotation Yrotation
							JOINT RightWrist
							{
OFFSET 0 -3.678750 0.000000
CHANNELS 3 Zrotation Xrotation Yrotation
								JOINT rhand
								{
									OFFSET 0 0 0
CHANNELS 3 Zrotation Xrotation Yrotation
									JOINT RFingers
									{
OFFSET 0 -0.594810 0.000000
CHANNELS 3 Zrotation Xrotation Yrotation
										End Site
										{
OFFSET 0 -0.479550 0.000000
										}
									}
								}
								JOINT RThumb
								{
OFFSET 0 0.000000 0.000000
CHANNELS 3 Zrotation Xrotation Yrotation
									End Site
									{
OFFSET 0 -0.486870 0.486870
									}
								}
							}
						}
					}
				}
			}
		}
	}
}
MOTION
Frames: 12
Frame Time: .0083333
5.9101 17.9198 -23.5269 -2.8262 78.4611 1.1813 0.0000 0.0000 0.0000 -7.5784 -2.4093 9.6121 0.0001 -0.0479 -0.1317 2.5218 -8.6740 -28.6021 6.5221 14.9159 47.0429 0.0000 0.0000 0.0000 8.3115 12.8706 5.3168 -0.0016 0.2560 -0.7034 0.3064 -23.0017 -30.3765 -0.0005 -0.1391 0.3821 2.5677 -6.0691 -4.9679 -2.0986 -8.1837 1.8589 -4.2374 -3.9720 4.0281 -6.5236 -23.5308 11.8672 13.5784 -31.9964 0.2037 4.7103 -16.3300 1.5096 -0.0000 -0.0000 0.0000 13.1182 12.6195 -23.0047 15.7133 -25.1304 3.5233 9.4657 -16.7134 12.0073 0.0 0.0 0.0 -7.1250 0.0 0.0 -12.3339 17.9712 -8.1172 -0.0000 -0.0000 0.0000 -3.7517 -0.7693 38.0423 -13.8440 -22.5113 -2.7681 -11.6355 8.8943 43.8542 0.0 0.0 0.0 7.1250 0.0 -0.0 40.2321 70.7129 -25.996
5.9198 17.9270 -23.5213 -4.0080 78.6345 0.2683 0.0000 0.0000 0.0000 -7.1335 -2.0056 9.0949 0.0000 -0.0053 -0.0145 2.4140 -8.4023 -27.9706 6.3453 14.7549 46.3525 0.0000 0.0000 0.0000 8.5106 12.4041 4.9476 -0.0019 0.2821 -0.7751 0.5925 -23.6751 -29.3777 -0.0205 0.9235 -2.5383 0.9088 -6.2538 -5.1449 -0.5720 -8.3858 1.8265 -1.8313 -4.1244 4.5406 -7.4856 -23.5846 11.5866 13.2092 -32.1476 -0.1775 4.6603 -16.3961 1.5270 0.0000 -0.0000 0.0000 10.6994 11.6464 -21.3862 15.4488 -24.7676 3.4117 9.3527 -15.7459 12.4196 0.0 0.0 0.0 -7.1250 0.0 0.0 -12.3931 17.5696 -8.2705 0.0000 -0.0000 0.0000 -6.0465 -0.6433 37.4824 -14.0561 -22.8149 -2.8498 -10.1397 7.368 42.6927 0.0 0.0 0.0 7.1250 0.0 -0.0 39.4560 69.3784 -24.3316
5.9239 17.9261 -23.5221 -3.4741 78.6168 0.7890 0.0000 0.0000 0.0000 -7.2536 -1.8426 9.0644 0.0000 -0.0037 -0.0100 2.3873 -8.5486 -27.8048 6.3975 14.8028 46.5568 0.0000 0.0000 0.0000 8.3626 12.3934 4.9921 -0.0018 0.2777 -0.7630 0.3545 -22.9089 -29.8985 -0.0005 -0.1418 0.3897 -1.0032 -6.3613 -4.9348 0.8073 -8.4612 1.7929 0.6048 -4.2361 4.8745 -8.2895 -23.7050 11.3977 12.7564 -32.3437 -0.8498 4.6136 -16.4883 1.4103 0.0000 -0.0000 0.0000 8.4995 10.9063 -20.486 15.3622 -24.6483 3.3756 9.3396 -15.0281 12.6932 0.0 0.0 0.0 -7.1250 0.0 0.0 -12.3903 17.2998 -8.3437 0.0000 -0.0000 0.0000 -8.3325 -0.5216 36.8713 -14.2499 -23.0908 -2.9254 -8.5735 6.037 42.2915 0.0 0.0 0.0 7.1250 0.0 -0.0 40.3042 68.583 -24.2272
5.9231 17.9218 -23.5259 -2.8012 78.4637 1.3077 0.0000 0.0000 0.0000 -7.4733 -1.8606 9.3459 0.0000 -0.0441 -0.1213 2.4230 -8.6650 -28.0158 6.4895 14.8865 46.9160 0.0000 0.0000 0.0000 8.1549 12.0338 4.9003 -0.0019 0.2804 -0.7703 0.6744 -23.5834 -28.6104 -0.0458 1.3815 -3.7991 -4.4270 -6.3973 -4.2773 3.3499 -8.4231 1.6941 5.1407 -4.3832 5.3087 -10.0663 -23.8059 11.2561 12.1521 -32.5968 -2.2285 4.6417 -16.6007 1.1919 0.0000 -0.0000 0.0000 4.3281 9.749 -19.4323 15.2450 -24.4863 3.3268 9.5108 -13.8334 12.7433 0.0 0.0 0.0 -7.1250 0.0 0.0 -12.2710 17.2413 -8.2756 0.0000 -0.0000 0.0000 -12.8393 -0.4669 38.0365 -14.6792 -23.6973 -3.0959 -8.172 5.1551 43.0845 0.0 0.0 0.0 7.1250 0.0 -0.0 42.1753 69.0229 -25.8918
5.9191 17.9183 -23.5293 -0.3518 78.2438 3.5761 0.0000 0.0000 0.0000 -8.1871 -2.0183 9.6778 0.0002 -0.0931 -0.2559 2.4996 -8.5884 -28.4744 6.4899 14.8868 46.9174 0.0000 0.0000 0.0000 7.5146 12.0438 4.9260 -0.0017 0.2640 -0.7253 0.6933 -23.5281 -28.3719 -0.0611 1.5951 -4.3879 -4.9127 -6.4290 -4.0305 3.2159 -8.4419 1.6183 5.2965 -4.4023 5.1438 -10.3027 -23.5785 11.5240 12.2648 -32.3417 -2.1741 4.7322 -16.4822 1.1968 -0.0000 -0.0000 0.0000 4.4234 9.8994 -19.263 15.4658 -24.791 3.4189 9.6607 -13.9022 12.4678 0.0 0.0 0.0 -7.1250 0.0 0.0 -12.1796 17.5057 -8.1387 -0.0000 -0.0000 0.0000 -12.9734 -0.0797 37.998 -14.5493 -23.5146 -3.0439 -6.8764 3.9481 42.4796 0.0 0.0 0.0 7.1250 0.0 -0.0 42.3338 68.1822 -25.2407
5.9160 17.9182 -23.5311 0.7926 78.1612 4.6590 0.0000 0.0000 0.0000 -8.5213 -2.0946 9.7624 0.0002 -0.1020 -0.2802 2.5365 -8.3686 -28.7008 6.3988 14.8039 46.5618 0.0000 0.0000 0.0000 7.2132 12.1184 4.9360 -0.0013 0.2316 -0.6363 0.5916 -23.2295 -28.6574 -0.0468 1.3966 -3.8408 -5.1500 -6.4620 -3.8998 3.1699 -8.4768 1.5620 5.3923 -4.4236 5.0440 -10.1640 -23.7454 11.5488 12.0043 -32.5432 -2.2396 4.6590 -16.5766 1.1306 -0.0000 0.0000 0.0000 4.6235 9.96 -19.4379 15.6767 -25.0803 3.5078 9.6261 -14.0283 12.4439 0.0 0.0 0.0 -7.1250 0.0 0.0 -12.2043 17.5312 -8.149 -0.0000 0.0000 0.0000 -12.9834 0.7938 37.9328 -14.8039 -23.8723 -3.1462 -6.0809 3.244 39.9669 0.0 0.0 0.0 7.1250 0.0 -0.0 38.9681 66.0968 -21.2034
5.9212 17.9293 -23.5247 -7.1908 78.5839 -2.9794 0.0000 0.0000 0.0000 -6.3395 -1.7606 9.1824 0.0000 -0.0234 -0.0642 2.3849 -8.2740 -27.8004 6.3150 14.7268 46.2332 0.0000 0.0000 0.0000 9.3137 12.2079 5.0053 -0.0013 0.2331 -0.6403 0.5161 -23.3065 -29.3470 -0.0317 1.1499 -3.1612 -3.4881 -6.5870 -4.1063 3.6305 -8.7402 1.5587 4.9113 -4.5066 5.0114 -9.9748 -23.9612 11.3733 11.7160 -32.8047 -2.0709 4.5279 -16.6937 1.1576 0.0000 0.0000 0.0000 4.8502 9.8853 -19.7344 15.8585 -25.3284 3.5852 9.6849 -14.2796 12.5247 0.0 0.0 0.0 -7.1250 0.0 0.0 -12.1606 17.4482 -8.1411 0.0000 0.0000 0.0000 -12.9186 0.943 37.8324 -14.5630 -23.5338 -3.0493 -5.9044 3.2244 40.5537 0.0 0.0 0.0 7.1250 0.0 -0.0 40.0519 66.4846 -22.2205
5.9231 17.9307 -23.5242 -7.6578 78.5900 -3.4519 0.0000 0.0000 0.0000 -6.2321 -1.7479 9.2185 0.0000 -0.0295 -0.0810 2.3689 -8.4016 -27.6984 6.3329 14.7434 46.3037 0.0000 0.0000 0.0000 9.4318 12.1264 5.0173 -0.0014 0.2433 -0.6684 0.5586 -23.4011 -29.1849 -0.0488 1.4260 -3.9218 -3.3606 -6.6654 -4.0740 3.6883 -8.8542 1.5530 4.8928 -4.5598 4.9906 -10.2267 -23.8182 11.3747 11.8135 -32.6596 -1.8372 4.5556 -16.6212 1.2672 0.0000 -0.0000 0.0000 4.8858 9.8043 -19.5116 16.0097 -25.5337 3.6501 9.8172 -14.3714 12.498 0.0 0.0 0.0 -7.1250 0.0 0.0 -12.0708 17.4675 -8.073 0.0000 -0.0000 0.0000 -13.0908 1.5667 37.8557 -14.9608 -24.0915 -3.2099 -5.0871 2.7986 41.0239 0.0 0.0 0.0 7.1250 0.0 -0.0 41.6121 66.5871 -23.3061
5.9230 17.9306 -23.5241 -7.7426 78.5698 -3.5125 0.0000 0.0000 0.0000 -6.2411 -1.8419 9.2435 0.0000 -0.0321 -0.0883 2.3814 -8.5508 -27.7689 6.3900 14.7959 46.5275 0.0000 0.0000 0.0000 9.4537 12.2022 5.0169 -0.0015 0.2534 -0.6961 0.5766 -23.4883 -29.1922 -0.0638 1.6299 -4.4838 -3.3175 -6.7372 -4.0566 3.7231 -8.9534 1.5137 4.8986 -4.6071 4.9505 -10.3533 -23.7121 11.4398 11.8267 -32.5386 -1.8323 4.5840 -16.5623 1.2674 -0.0000 0.0000 0.0000 4.9119 9.768 -19.1148 16.1549 -25.7302 3.7129 9.7304 -14.2192 12.5533 0.0 0.0 0.0 -7.1250 0.0 0.0 -12.1282 17.4174 -8.1268 -0.0000 0.0000 0.0000 -13.2916 1.8204 38.2583 -14.9395 -24.0617 -3.2012 -5.6957 2.7937 41.2999 0.0 0.0 0.0 7.1250 0.0 -0.0 41.4627 66.9705 -23.5601
5.9222 17.9308 -23.5237 -7.5613 78.5410 -3.3318 0.0000 0.0000 0.0000 -6.3036 -1.8958 9.2663 0.0000 -0.0286 -0.0785 2.3923 -8.8936 -27.8249 6.5392 14.9312 47.1090 0.0000 0.0000 0.0000 9.4227 12.3321 5.0675 -0.0016 0.2611 -0.7174 0.5184 -23.3731 -29.4364 -0.0409 1.3054 -3.5895 -3.3133 -6.7456 -4.0297 3.6964 -8.9639 1.4877 4.8725 -4.6106 4.9039 -10.2916 -23.7299 11.4632 11.7782 -32.5566 -1.8050 4.5696 -16.5706 1.2572 0.0000 -0.0000 0.0000 5.0824 9.685 -18.9451 16.2673 -25.8818 3.7619 9.5573 -14.0236 12.7078 0.0 0.0 0.0 -7.1250 0.0 0.0 -12.2406 17.2738 -8.2452 0.0000 -0.0000 0.0000 -13.2323 1.9405 38.1762 -14.6821 -23.7014 -3.097 -7.2072 3.4972 41.6483 0.0 0.0 0.0 7.1250 0.0 -0.0 40.5460 67.6862 -23.6031
5.9211 17.9320 -23.5235 -6.9664 78.5306 -2.7500 0.0000 0.0000 0.0000 -6.4582 -1.9182 9.2697 0.0000 -0.0258 -0.0710 2.3858 -9.2181 -27.7804 6.6636 15.0420 47.5904 0.0000 0.0000 0.0000 9.2785 12.3612 5.0810 -0.0017 0.2655 -0.7294 0.4930 -23.3096 -29.5214 -0.0223 0.9638 -2.6493 -3.4606 -6.8315 -3.9424 3.7362 -9.0736 1.4239 4.9955 -4.6688 4.8313 -10.4866 -23.6385 11.5232 11.8325 -32.4653 -1.7767 4.6052 -16.5269 1.2852 -0.0000 0.0000 0.0000 5.0071 9.5946 -18.5742 16.3452 -25.9864 3.7959 9.5569 -13.9021 12.7851 0.0 0.0 0.0 -7.1250 0.0 0.0 -12.2377 17.1974 -8.2641 -0.0000 0.0000 0.0000 -13.2294 2.03 37.6622 -14.4447 -23.3669 -3.0022 -7.7222 4.2108 41.9987 0.0 0.0 0.0 7.1250 0.0 -0.0 40.6379 68.1019 -24.0302
5.9212 17.9324 -23.5217 -6.5759 78.5208 -2.3473 0.0000 0.0000 0.0000 -6.5850 -2.0354 9.2942 0.0000 -0.0264 -0.0726 2.4109 -9.0860 -27.9330 6.6021 14.9874 47.3528 0.0000 0.0000 0.0000 9.1890 12.3878 5.0632 -0.0018 0.2712 -0.7452 0.5449 -23.5004 -29.4460 -0.0293 1.1054 -3.0390 -3.7251 -7.0768 -3.7952 3.9913 -9.3987 1.2660 5.3943 -4.8396 4.7119 -11.1538 -23.3836 11.6177 11.8073 -32.2214 -1.7476 4.6674 -16.4033 1.3466 0.0000 -0.0000 0.0000 4.4193 9.6763 -17.7195 16.4676 -26.1505 3.8497 9.6778 -13.8265 12.8809 0.0 0.0 0.0 -7.1250 0.0 0.0 -12.1512 17.0961 -8.2305 0.0000 -0.0000 0.0000 -13.7555 2.0477 37.7754 -14.2537 -23.0962 -2.9269 -6.7216 3.5842 42.3488 0.0 0.0 0.0 7.1250 0.0 -0.0 42.2517 68.0407 -25.0564
